{"accessors":[{"bufferView":2,"componentType":5126,"count":8636,"max":[0.19679319858551025,43.69729232788086,156.75213623046875],"min":[-4.652477741241455,-43.73301315307617,-156.7595672607422],"type":"VEC3"},{"bufferView":2,"byteOffset":103632,"componentType":5126,"count":8636,"max":[1,0.9846690893173218,0.9991965293884277],"min":[-1,-0.9623161554336548,-0.9936670064926147],"type":"VEC3"},{"bufferView":1,"componentType":5126,"count":8636,"max":[0.9927350878715515,0.994422435760498],"min":[0.007264940533787012,0.008901834487915039],"type":"VEC2"},{"bufferView":0,"componentType":5125,"count":23796,"type":"SCALAR"},{"bufferView":2,"byteOffset":207264,"componentType":5126,"count":24,"max":[100,100,100],"min":[-100,-100,-100],"type":"VEC3"},{"bufferView":2,"byteOffset":207552,"componentType":5126,"count":24,"max":[1,1,1],"min":[-1,-1,-1],"type":"VEC3"},{"bufferView":1,"byteOffset":69088,"componentType":5126,"count":24,"max":[0.6588830351829529,0.9922163486480713],"min":[0.007783646695315838,0.007783651351928711],"type":"VEC2"},{"bufferView":0,"byteOffset":95184,"componentType":5125,"count":36,"type":"SCALAR"}],"asset":{"extras":{"author":"kylite851 (https://sketchfab.com/kylite851)","license":"CC-BY-4.0 (http://creativecommons.org/licenses/by/4.0/)","source":"https://sketchfab.com/3d-models/sample-5a7931b15c684db189fbe4fc82dfb38a","title":"sample"},"generator":"Sketchfab-12.89.0","version":"2.0"},"bufferViews":[{"buffer":0,"byteLength":95328,"name":"floatBufferViews","target":34963},{"buffer":0,"byteLength":69280,"byteOffset":95328,"byteStride":8,"name":"floatBufferViews","target":34962},{"buffer":0,"byteLength":207840,"byteOffset":164608,"byteStride":12,"name":"floatBufferViews","target":34962}],"buffers":[{"byteLength":372448,"uri":"data:application/octet-stream;base64,"}],"extensionsUsed":["KHR_texture_transform"],"images":[{"uri":"data:application/octet-stream;base64,"},{"uri":"data:application/octet-stream;base64,"}],"materials":[{"doubleSided":true,"name":"material","pbrMetallicRoughness":{"baseColorTexture":{"extensions":{"KHR_texture_transform":{"scale":[1.1520035089482497,0.933411152584371]}},"index":0},"metallicRoughnessTexture":{"index":1},"roughnessFactor":0.07771452255854494}}],"meshes":[{"name":"Extrude_Mat_0","primitives":[{"attributes":{"NORMAL":1,"POSITION":0,"TEXCOORD_0":2},"indices":3,"material":0,"mode":4}]},{"name":"Cube_Mat_0","primitives":[{"attributes":{"NORMAL":5,"POSITION":4,"TEXCOORD_0":6},"indices":7,"material":0,"mode":4}]}],"nodes":[{"children":[1],"matrix":[1,0,0,0,0,2.220446049250313e-16,-1,0,0,1,2.220446049250313e-16,0,0,0,0,1],"name":"Sketchfab_model"},{"children":[2],"matrix":[0.009999999776482582,0,0,0,0,0,0.009999999776482582,0,0,-0.009999999776482582,0,0,0,0,0,1],"name":"05b5ce29afb04000a244e17027902ef9.fbx"},{"children":[3,5,7],"name":"RootNode"},{"children":[4],"matrix":[-0.6955321103793053,0.04263522865185057,-0.71722891792587,0,0.029681159483799985,0.9990907052304132,0.030607049741731236,0,0.7178816839863009,-3.452099717193846e-16,-0.6961651296905014,0,330.4770202636719,-64.35155487060547,538.1096801757812,1],"name":"CINEMA_4D_Editor"},{"name":"Object_4"},{"children":[6],"matrix":[1,0,0,0,0,1,0,0,0,0,1,0,-1.6992287635803223,34.25605773925781,-8.608753204345703,1],"name":"Extrude"},{"mesh":0,"name":"Extrude_Mat_0"},{"children":[8],"matrix":[1,0,0,0,0,1,0,0,0,0,1,0,-159.16522216796875,0,0,1],"name":"Cube"},{"mesh":1,"name":"Cube_Mat_0"}],"samplers":[{"magFilter":9729,"minFilter":9987,"wrapS":10497,"wrapT":10497}],"scene":0,"scenes":[{"name":"Sketchfab_Scene","nodes":[0]}],"textures":[{"sampler":0,"source":0},{"sampler":0,"source":1}]}